<?xml version="1.0" encoding="UTF-8"?>
<svg version="1.0" xmlns="http://www.w3.org/2000/svg"
  width="1024pt" height="1024pt" viewBox="0 0 1024 1024"
  preserveAspectRatio="xMidYMid meet">
  <g transform="translate(0,1024) scale(0.1,-0.1)" fill="#ffc800" stroke="none">
    <path d="M1353 6216 c-102 -33 -176 -97 -222 -196 l-26 -55 -3 -669 c-3 -726 ..."/>
    <path d="M2257 4965 c-26 -52 -47 -97 -47 -100 0 -8 178 -6 183 3 3 4 -16 49 ..."/>
    <path d="M1772 4965 c-23 -47 -42 -90 -42 -95 0 -6 38 -10 90 -10 52 0 90 4 ..."/>
    <path d="M4798 5880 c-63 -16 -158 -69 -208 -116 -96 -90 -143 -220 -143 -399 ..."/>
    <path d="M3761 5673 c-41 -114 -123 -343 -182 -508 -60 -165 -109 -304 -109 ..."/>
    <path d="M5510 5365 l0 -515 100 0 100 0 0 515 0 515 -100 0 -100 0 0 -515z"/>
    <path d="M9040 5365 l0 -515 95 0 95 0 0 515 0 515 -95 0 -95 0 0 -515z"/>
    <path d="M5890 5360 l0 -510 325 0 325 0 0 90 0 90 -225 0 -225 0 0 420 0 420 ..."/>
    <path d="M6897 5618 c-114 -15 -223 -103 -269 -216 -19 -48 -23 -75 -23 -177 ..."/>
    <path d="M7663 5620 c-161 -33 -253 -171 -253 -378 1 -235 124 -372 334 -372 ..."/>
    <path d="M8512 5619 c-107 -18 -200 -89 -222 -169 -20 -70 -20 -70 79 -70 80 ..."/>
  </g>
</svg>
