<?xml version="1.0" standalone="no"?>
<!DOCTYPE svg PUBLIC "-//W3C//DTD SVG 20010904//EN"
 "http://www.w3.org/TR/2001/REC-SVG-20010904/DTD/svg10.dtd">
<svg version="1.0" xmlns="http://www.w3.org/2000/svg"
 width="2024.000000pt" height="2024.000000pt" viewBox="0 0 2024.000000 2024.000000"
 preserveAspectRatio="xMidYMid meet">

<g transform="translate(0.000000,1024.000000) scale(0.100000,-0.100000)"
fill="#ffc800" stroke="none">
<path d="M1353 6216 c-102 -33 -176 -97 -222 -196 l-26 -55 -3 -669 c-3 -726
-3 -728 53 -816 35 -55 110 -117 172 -140 54 -20 69 -20 772 -18 l716 3 63 34
c72 39 120 88 159 163 l28 53 0 695 0 695 -29 62 c-33 73 -103 144 -174 176
-47 22 -51 22 -757 24 -567 2 -718 -1 -752 -11z m845 -152 c231 -47 406 -217
467 -453 9 -35 15 -93 14 -130 -2 -65 -1 -69 70 -197 85 -156 93 -195 47 -243
-16 -16 -41 -35 -56 -41 -29 -12 -40 -41 -40 -106 0 -18 -5 -45 -11 -61 -6
-15 -12 -65 -13 -110 -1 -72 -4 -84 -26 -108 -47 -51 -75 -59 -204 -60 -102 0
-120 2 -130 18 -8 12 -8 22 0 35 9 14 31 18 112 23 156 10 178 25 165 115 -3
24 0 57 7 76 7 18 15 78 19 133 l6 100 36 3 c23 2 45 12 60 28 l23 24 -27 53
c-14 28 -51 98 -80 154 -53 99 -54 104 -44 147 23 100 -47 272 -152 376 -117
115 -211 150 -408 151 -202 0 -332 -49 -442 -167 -186 -198 -200 -470 -40
-796 38 -79 49 -112 54 -173 7 -74 -3 -180 -25 -257 -10 -36 -13 -38 -50 -38
-46 0 -48 5 -25 90 8 30 15 98 15 151 0 96 0 96 -56 214 -74 156 -104 275
-104 414 0 60 7 134 16 171 44 189 189 361 362 429 127 50 316 65 460 35z
m-287 -263 c18 -19 29 -40 29 -58 0 -33 54 -76 108 -86 46 -9 126 36 118 66
-7 27 18 83 42 96 51 27 110 5 132 -48 10 -26 9 -36 -6 -68 -22 -45 -61 -62
-103 -47 -23 9 -32 8 -52 -9 -13 -10 -24 -23 -24 -28 0 -13 -95 -129 -106
-129 -5 0 -11 11 -15 25 -5 19 -11 24 -28 20 -104 -21 -214 -48 -228 -56 -10
-5 -18 -16 -18 -23 0 -7 -11 -23 -25 -36 -56 -53 -145 -12 -145 66 0 68 82
110 136 69 10 -8 35 -14 54 -14 33 -1 216 42 226 52 3 3 -18 21 -45 41 -41 31
-54 35 -70 27 -55 -30 -131 16 -131 79 0 43 47 90 90 90 22 0 41 -9 61 -29z
m179 -553 c11 -12 20 -34 20 -50 l0 -27 102 -3 103 -3 52 -135 c62 -160 66
-199 24 -241 -24 -23 -38 -29 -75 -29 -59 0 -91 13 -112 46 -26 39 -21 77 25
189 23 54 41 103 41 107 0 4 -40 8 -90 8 l-90 0 0 -240 0 -240 48 0 c51 0 72
-12 72 -42 0 -30 -35 -38 -164 -38 -113 0 -128 2 -146 20 -16 16 -18 25 -10
40 9 17 21 20 70 20 l60 0 0 240 0 240 -86 0 c-65 0 -85 -3 -81 -12 3 -7 23
-59 46 -116 23 -56 41 -114 41 -128 0 -15 -12 -38 -29 -55 -27 -26 -36 -29
-94 -29 -61 0 -67 2 -91 31 -14 17 -26 40 -26 52 0 12 25 88 56 169 l56 148
94 0 94 0 0 30 c0 32 30 70 55 70 8 0 23 -10 35 -22z"/>
<path d="M2257 4965 c-26 -52 -47 -97 -47 -100 0 -8 178 -6 183 3 3 4 -16 49
-42 100 l-46 92 -48 -95z"/>
<path d="M1772 4965 c-23 -47 -42 -90 -42 -95 0 -6 38 -10 90 -10 52 0 90 4
90 10 0 14 -83 180 -90 180 -3 0 -25 -38 -48 -85z"/>
<path d="M4798 5880 c-63 -16 -158 -69 -208 -116 -96 -90 -143 -220 -143 -399
-1 -177 40 -294 137 -391 91 -91 204 -134 351 -134 129 0 243 48 327 138 83
88 112 179 106 327 l-3 80 -192 1 -193 1 0 -73 0 -74 100 0 100 0 -6 -32 c-11
-65 -25 -95 -57 -126 -49 -47 -101 -65 -187 -65 -167 1 -257 100 -275 304 -12
133 25 266 93 332 50 48 102 68 179 69 110 1 201 -59 220 -144 l6 -28 103 0
c57 0 104 3 104 7 0 27 -36 125 -58 158 -39 56 -120 119 -189 145 -65 26 -248
37 -315 20z"/>
<path d="M3761 5673 c-41 -114 -123 -343 -182 -508 -60 -165 -109 -304 -109
-308 0 -4 46 -6 102 -5 l102 3 40 123 40 122 191 0 191 0 40 -122 39 -123 103
-3 c56 -1 102 1 102 5 0 4 -83 235 -184 513 l-183 505 -110 3 -109 3 -73 -208z
m253 -202 c36 -110 66 -202 66 -205 0 -3 -61 -6 -135 -6 -74 0 -135 3 -135 6
0 11 131 404 135 404 2 0 33 -90 69 -199z"/>
<path d="M5510 5365 l0 -515 100 0 100 0 0 515 0 515 -100 0 -100 0 0 -515z"/>
<path d="M9040 5365 l0 -515 95 0 95 0 0 515 0 515 -95 0 -95 0 0 -515z"/>
<path d="M5890 5360 l0 -510 325 0 325 0 0 90 0 90 -225 0 -225 0 0 420 0 420
-100 0 -100 0 0 -510z"/>
<path d="M6897 5618 c-114 -15 -223 -103 -269 -216 -19 -48 -23 -75 -23 -177
0 -116 1 -123 33 -187 68 -139 188 -205 355 -196 125 7 225 64 282 163 47 81
48 80 -61 77 -95 -3 -97 -4 -128 -37 -53 -56 -134 -69 -206 -32 -49 24 -90 88
-90 139 l0 29 265 -3 265 -3 0 45 c0 59 -25 160 -51 212 -33 65 -103 133 -167
161 -66 29 -124 36 -205 25z m151 -165 c35 -26 59 -69 67 -118 l7 -40 -166 0
-166 0 0 23 c0 29 26 90 48 116 44 49 156 59 210 19z"/>
<path d="M7663 5620 c-161 -33 -253 -171 -253 -378 1 -235 124 -372 334 -372
85 0 139 22 180 71 l29 34 -5 -75 c-3 -41 -13 -92 -22 -112 -47 -98 -211 -117
-285 -33 l-30 35 -96 0 c-95 0 -96 0 -89 -22 24 -81 90 -153 172 -191 40 -18
66 -22 167 -22 116 0 123 1 187 33 79 39 128 92 160 171 21 54 22 71 26 454
l4 397 -96 0 -96 0 0 -46 0 -46 -29 31 c-55 59 -167 89 -258 71z m181 -164
c128 -54 143 -331 21 -406 -101 -63 -221 -13 -254 105 -15 54 -13 152 3 198
35 98 135 143 230 103z"/>
<path d="M8512 5619 c-107 -18 -200 -89 -222 -169 -20 -70 -20 -70 79 -70 80
0 90 2 96 20 3 10 19 30 36 44 55 47 143 46 199 0 24 -21 30 -34 30 -65 0 -50
-13 -57 -147 -70 -135 -13 -198 -30 -252 -69 -102 -74 -111 -243 -17 -336 49
-50 93 -64 202 -64 66 0 89 4 133 26 29 15 58 35 64 45 18 29 23 23 19 -21
l-4 -40 97 0 97 0 -4 283 c-3 269 -4 284 -26 332 -13 27 -33 60 -45 73 -35 38
-110 71 -184 82 -77 11 -79 11 -151 -1z m221 -446 c-8 -97 -13 -111 -49 -142
-19 -17 -38 -31 -42 -31 -4 -1 -27 -5 -52 -10 -90 -18 -160 20 -160 88 0 74
32 94 185 112 50 6 94 15 100 21 18 18 23 9 18 -38z"/>
</g>
</svg>
